# xmcd CD database file
#
# Track frame offsets:
#	150
#	24392
#	47120
#
# Disc length: 951 seconds
#
# Revision: 0
# Processed by: cddbd v1.5.1PL0 Copyright (c) Steve Scherf et al.
# Submitted via: CDex 1.51
#
DISCID=1c03b503
DTITLE=金月真美 - Dreams 〜夢の灯る街
DYEAR=1998
DGENRE=JPop
TTITLE0=Dreams 〜夢の灯る街
TTITLE1=あなたが想うよりずっと
TTITLE2=Dreams 〜夢の灯る街 -KARAOKE-
EXTD=YEAR: 1998
EXTT0=
EXTT1=
EXTT2=
PLAYORDER=
